<svg xmlns="http://www.w3.org/2000/svg" data-name="Слой 1" viewBox="0 0 100 125" x="0px" y="0px"><title>Безымянный-1-01-01-01-01-01-01-01</title><g><path d="M96.59912,42.70251c-0.49957-1.4646-2.05493-1.45508-3.19611-1.83759a52.56284,52.56284,0,0,0-5.53912-1.25818c0.4903-.40533.98651-0.876,1.54083-1.26392C92.69513,36.04,95.571,33.38977,97.10187,29.542c1.60327-4.02936-.16321-9.31067-4.28619-11.17706a4.3508,4.3508,0,0,0-2.35492-.36469c-5.24536.86133-9.30121,3.76532-12.67242,7.712-2.24066,2.62317-4.37781,5.3349-6.54767,7.99048a32.97038,32.97038,0,0,1,1.1933-4.28589c1.345-3.18066,1.09283-6.53931,1.03021-9.80054-0.092-4.79193-5.95862-8.14484-9.866-6.39233C60.446,14.63776,58.1,16.5274,56.8584,19.913c-1.196,3.26117-.76093,6.55249-0.84552,9.83777-0.10223,3.96594,1.107,7.73474,2.09094,11.51886a12.68443,12.68443,0,0,0,1.327,2.56134c-0.37158.11554-.87823,0.25787-1.37439,0.43066a2.08336,2.08336,0,0,1-2.48114-.73907A34.77509,34.77509,0,0,0,52.81982,41.245a1.92048,1.92048,0,0,1-.50989-1.09314c-0.25165-1.711-.39734-3.43829-0.67578-5.14423a6.51816,6.51816,0,0,1,.12-2.43335A18.834,18.834,0,0,0,52.244,26.858,15.15746,15.15746,0,0,0,50.438,22.31836a3.41682,3.41682,0,0,0-3.4881-1.962,34.37246,34.37246,0,0,0-3.95959.48383,4.023,4.023,0,0,0-2.93774,1.94342,15.67577,15.67577,0,0,1-1.02087,1.3891A26.74678,26.74678,0,0,0,36.33026,21.596c-0.92706-.67029-2.0954-0.99866-3.0592-1.62805a4.0795,4.0795,0,0,0-4.56763.14648c-3.13171,1.90118-6.10126,6.8006-4.25647,11.52594a1.60048,1.60048,0,0,1-.30157,1.83752A7.36529,7.36529,0,0,0,22.255,39.03406a1.24011,1.24011,0,0,1-.846.81,28.87693,28.87693,0,0,0-9.23425,3.16229c-3.8454,1.95453-5.58368,5.38843-6.88843,9.00476a119.40394,119.40394,0,0,0-3.11816,11.88,3.05083,3.05083,0,0,0,.20953,1.163A10.29953,10.29953,0,0,0,3.69012,64.344a1.67732,1.67732,0,0,0,.226-0.67969C5.715,58.94891,7.4,54.21887,10.75684,50.247c3.25037-3.84595,7.45532-5.48456,12.31683-6.35022a8.664,8.664,0,0,0,3.16327,7.02869,14.86885,14.86885,0,0,0,10.67267,3.51929,1.21912,1.21912,0,0,1,1.48.895,6.28683,6.28683,0,0,0,3.86035,3.93787,5.48817,5.48817,0,0,1,.73767.51086,15.39681,15.39681,0,0,0-2.448,1.8916,58.00594,58.00594,0,0,0-5.35223,6.7229,34.65818,34.65818,0,0,0-3.08521,6.96136,3.46674,3.46674,0,0,0,.0531,3.43506,12.71622,12.71622,0,0,0,1.36041-1.65656c0.87073-1.54694,1.588-3.18274,2.49658-4.70538a37.00026,37.00026,0,0,1,7.5567-8.84589c1.48315-1.29687,1.54108-1.22827,2.99292.00989a2.53443,2.53443,0,0,0,.49377.35242,1.02245,1.02245,0,0,1,.44495,1.68738c-1.37866,2.14178-2.80182,4.25665-4.12146,6.4342a21.68427,21.68427,0,0,1-5.09906,5.48242,2.06238,2.06238,0,0,0-.55695,1.02728,2.52376,2.52376,0,0,0,.08606.89276A2.1771,2.1771,0,0,0,38.79,79.26361c1.84808-1.76355,3.765-3.47363,5.44543-5.38916,2.07117-2.3609,3.9353-4.9035,5.77936-7.22949,0.60059,0.32562,1.21161.695,1.85474,0.99573,0.75006,0.35071,1.52814.64148,2.42334,1.01172-0.26263.81561-.58887,1.76257-0.87274,2.722a30.50352,30.50352,0,0,1-5.66785,10.87231C46.9054,83.276,45.91,84.18317,45.06476,85.2135a2.18307,2.18307,0,0,0-.0072,1.11542A2.2457,2.2457,0,0,0,46.196,86.1615a59.38869,59.38869,0,0,0,5.47943-6.46277c1.70459-2.57721,2.9184-5.47729,4.39056-8.21277a1.1158,1.1158,0,0,1,.89722-0.45221C58.34,71.17712,59.707,71.41388,61.1554,71.629a6.22871,6.22871,0,0,1-.32574,1.67c-1.67987,3.56671-3.41858,7.10559-5.13959,10.65283-0.385.79358-.81549,1.56854-1.14008,2.3858a1.99336,1.99336,0,0,0,.15228.9101,2.141,2.141,0,0,0,.81659-0.24139,3.92752,3.92752,0,0,0,.82367-1.02765c0.97443-1.72516,1.87988-3.49005,2.8819-5.19855a46.85062,46.85062,0,0,0,4.61371-10.10175,2.516,2.516,0,0,1,.59833-0.72l0.44843-.06775c-0.32245,1.61853.574,1.67786,1.56659,1.61884,1.33087-.07916,2.67334-0.07111,3.99036-0.25073,2.51025-.34235,5.11041-0.142,7.47961-1.36725,3.80292-1.9668,6.24878-4.84039,6.414-9.28217,0.097-2.60925-1.19446-4.81622-2.212-7.0907-0.3479-.77771-0.78992-1.51331-1.26135-2.40521,0.5697-.0484.88452-0.09991,1.19843-0.0954a5.97286,5.97286,0,0,1,1.08606.09808,24.226,24.226,0,0,0,11.75879-.35242c1.5141-.44281,3.116-2.07306,2.93182-3.45367A24.56645,24.56645,0,0,0,96.59912,42.70251ZM73.86554,32.75043c1.13611-1.5434,2.46661-2.96088,3.72314-4.41907,1.13556-1.31787,2.37775-2.54425,3.50439-3.8692,1.45514-1.7113,3.43024-2.6507,5.32507-3.70709a0.643,0.643,0,0,1,.254-0.07153,6.13828,6.13828,0,0,1,3.00464-.819,4.75756,4.75756,0,0,1,2.98566.60767c3.59467,2.205,3.54321,7.54712,2.04193,10.19391-2.12762,3.75073-5.54785,6.00873-8.96844,8.34271-2.26752,1.54712-5.02344,1.654-7.40674,2.80981a22.17774,22.17774,0,0,0-3.57129,1.74921c-1.32056.97308-2.60315,0.70667-3.92609,0.34918a25.68683,25.68683,0,0,1-2.7326-1.08429c0.14374-.47906.28729-0.95758,0.43512-1.4502a2.15933,2.15933,0,0,1,.12982-0.64832c0.72894-2.03748,1.0249-3.85742,2.55078-5.5199A22.71036,22.71036,0,0,1,73.86554,32.75043ZM58.27161,35.97571a35.081,35.081,0,0,1-.84631-9.17706,20.71655,20.71655,0,0,1,1.65137-8.01837c0.88434-2.17206,5.26855-4.5882,7.70551-4.15271a6.26318,6.26318,0,0,1,5.02209,6.40625,17.21894,17.21894,0,0,0-.03357,2.556c0.25067,3.25269-.9621,6.20807-1.87805,9.2088-0.82526,2.70325-1.88483,5.33411-2.76331,8.02234a2.10826,2.10826,0,0,1-2.2901,1.79614,30.72666,30.72666,0,0,0-4.40149.57178C59.71753,40.80725,58.9325,38.40839,58.27161,35.97571Zm-3.667,8.66064a3.55944,3.55944,0,0,1,.91693,2.9859c-0.60535,3.5921-1.72644,6.94342-4.79694,9.22473a18.74243,18.74243,0,0,1-2.93976,1.4881l-0.24347-.30975c0.29-.62311.58014-1.24628,0.88855-1.90887l-1.04687.18195c-0.41345.65729-.8269,1.31464-1.26154,2.00562-0.89178-.13281-1.90558-0.28381-3.09882-0.46155,0.66229-1.00165,1.22675-1.85535,1.7912-2.709l0.12378,0.05774c-0.264.73907-.52808,1.47815-0.81946,2.29395,0.74908-.14075,5.14337-5.89062,5.72491-7.29773-0.782.84674-1.57654,1.68237-2.34058,2.545a4.29272,4.29272,0,0,1-1.26117,1.179c1.21692-1.91565,2.38226-3.86682,3.66888-5.73444,0.86536-1.25616,1.92365-2.37769,2.855-3.59064C53.43555,43.71356,54.00006,43.91559,54.60461,44.63635Zm-2.98273-2.23041c0.51013,0.22058.86938,0.37592,1.34106,0.5799-3.15924,4.33521-6.26038,8.59058-9.36151,12.846l-0.24615-.16571C46.07959,51.28033,49.262,47.17877,51.62189,42.40594ZM38.81677,32.77142c0.45184-1.37109.64484-2.8269,1.08539-4.20264a4.87761,4.87761,0,0,1,1.09723-1.48328,6.52036,6.52036,0,0,1,3.725-2.14148,4.95722,4.95722,0,0,1,4.88,1.56219c0.5011,0.55463,1.26642,1.25146,1.23065,1.84229-0.129,2.13306-.07385,4.411-2.14862,5.855A5.04523,5.04523,0,0,1,46.727,35.351a7.29487,7.29487,0,0,1-4.73077.20435,0.61119,0.61119,0,0,1-.26807-0.03821c-0.24506-.09125-0.48792-0.164-0.72693-0.23352q-0.38708-.0856-0.77307-0.18311a0.66042,0.66042,0,0,1-.3114-0.17834,3.14161,3.14161,0,0,1-.91815-0.5874A0.64491,0.64491,0,0,1,38.809,34.0094,1.51653,1.51653,0,0,1,38.81677,32.77142ZM29.61,21.27173c2.124-1.08838,3.601.76068,5.33954,1.65491-1.13928-.37488-2.27319-0.76752-3.41992-1.11835-0.74005-.22644-1.54089-0.57007-1.65649.75507a2.14937,2.14937,0,0,1-.93433.58362C29.14386,22.57428,29.32977,22.05475,29.61,21.27173ZM27.35187,26.4126c2.21411-2.37653,4.68719-2.57935,7.55878-1.04285,0.84711,0.45331,1.90906.47833,2.52094,1.40033,0.34528,0.52026.77734,0.98291,1.19012,1.49609-0.529,1.75586-.86511,3.30243-1.4671,4.73761-0.51,1.21594-3.83624,2.55762-5.20654,2.31555a7.3267,7.3267,0,0,1-6.0882-4.92047C25.2807,28.76056,26.35791,27.47949,27.35187,26.4126Zm2.59155,24.77264c-3.17615-1.50549-4.80219-4.07208-5.87061-7.37164,2.6416-.4613,5.21881-0.91113,7.7959-1.36163a33.95237,33.95237,0,0,0,3.3421-.62073,5.25845,5.25845,0,0,0,1.40948-.98059l-0.10565-.37427a7.887,7.887,0,0,0-1.42053.012c-2.85193.53088-5.69562,1.1062-8.54712,1.63953a3.96413,3.96413,0,0,1-1.02649-.07764l-0.03583-.37415,8.01923-1.17291c-1.41748-.76721-12.02,1.04688-13.62366,2.06165a3.81893,3.81893,0,0,0-1.477-.29889c-1.55505.53394-3.07336,1.17474-4.60486,1.77722l-0.1568-.3457a24.93952,24.93952,0,0,1,4.53577-1.89264c3.98657-.82446,8.02789-1.38422,12.04785-2.04651,1.07751-.17749,2.17151-0.28461,3.22693-0.54828a2.39789,2.39789,0,0,0,.77283-0.889,3.20331,3.20331,0,0,0-1.11987-.30573c-2.76935.33093-5.52972,0.73853-8.301,1.05017a1.12237,1.12237,0,0,1-.88708-0.64478,5.21378,5.21378,0,0,1,1.889-4.45013,16.57359,16.57359,0,0,1,1.2713,1.07135,6.63842,6.63842,0,0,0,5.42322,1.95331,12.454,12.454,0,0,0,4.03351-1.46051,1.22922,1.22922,0,0,1,1.369-.01349c3.15521,1.66608,6.46179,2.42792,9.95038,1.09332a16.35549,16.35549,0,0,0,2.21417-1.31073c0.55121,1.7876,1.23358,3.47394.76233,5.26233A18.07573,18.07573,0,0,1,43.273,50.91608C38.94733,53.91711,34.48407,53.33752,29.94342,51.18524Zm10.67651,4.93427c-0.336-.82611-0.56183-1.38165-0.76312-1.87653,1.92975-1.1131,3.75732-2.16736,4.92761-2.84241C43.78412,52.53406,42.29822,54.21783,40.61993,56.11951ZM73.52747,68.4292c-3.14868-.08228-5.91895,1.68665-9.19672.5434,0.59192-1.22925,1.14447-2.49835,1.80286-3.7099,0.65-1.19592,1.407-2.33374,2.11707-3.49707l-0.28253-.19733q-1.36908,2.01526-2.7381,4.0304l-0.19458-.11023c0.74329-1.595,1.50507-3.18182,2.2179-4.79028a8.77948,8.77948,0,0,0,.373-1.44409c-0.68481,1.25031-1.38293,2.49353-2.04907,3.75372-0.35571.67285-.65607,1.37494-1.00281,2.10931-0.51068-.20422-0.977-0.39069-1.53125-0.6123-0.53009.633-1.06641,1.27325-1.80017,2.14923,0.31592-1.12384.55389-1.9704,0.79187-2.817-0.566,1.22668-1.14575,2.44733-1.68036,3.6875a0.45267,0.45267,0,0,0,.77673.46228c0.39954-.42957.74017-0.91382,1.25714-1.57294-0.16565.90131-.29315,1.58337-0.4162,2.2663-0.23315,1.29425-.69849,1.69128-1.96375,1.46222a11.08472,11.08472,0,0,1-2.30841-.73633c-0.57629-.24347-0.68152-0.5766-0.07288-1.05487a15.26107,15.26107,0,0,0,1.61444-1.69714l-0.16992-.25916q-0.41089.05347-.82306,0.107c0.53357-1.472,1.05-2.89691,1.56653-4.32178-0.513.74506-1.026,1.49011-1.52484,2.21454-0.14783-.34357-0.32977-0.76642-0.5083-1.1814q0.43726-.76959.87036-1.532l-0.202-.1507L56.895,63.45673l-0.11914-.0658,1.11365-2.5329-0.2511-.14032a11.64836,11.64836,0,0,1-.92419,1.415,5.23523,5.23523,0,0,1-1.02747.73712l-0.35022.36713a28.81581,28.81581,0,0,1-.46423,3.08893,1.19979,1.19979,0,0,1-1.05621.4751,1.84441,1.84441,0,0,1-1.13849-2.9c0.05969-.104.10712-0.21527,0.15771-0.32428a9.30728,9.30728,0,0,0,.917-2.66736Q53.011,62.151,52.26953,63.3927l-0.25507-.07581a5.967,5.967,0,0,1,.361-1.50952c0.55591-1.036.39142-1.54926-.70026-1.44928-0.27637-.449-0.485-0.78809-0.69379-1.1272a4.06146,4.06146,0,0,0-.96771.908c-0.4245.80988-.72235,1.6861-1.18506,2.4975,0.13257-.99146,1.229-1.77734.61047-2.96039-0.80054.618-1.54584,1.19342-2.27112,1.75348-1.2005-1.1507-2.397-1.02063-3.69214.29956-1.757,1.79083-3.54449,3.5553-5.22839,5.41315-1.04321,1.15088-1.91858,2.45386-2.86932,3.6886l-0.2688-.19177a75.89277,75.89277,0,0,1,4.73718-6.36761,28.77344,28.77344,0,0,1,4.97577-4.0351,5.10281,5.10281,0,0,1,2.351-.45728c3.56891-.31555,5.90247-2.43,7.63757-5.3158a16.17894,16.17894,0,0,0,2.41553-8.37872c10.03247-5.18121,21.82458,2.046,23.15826,9.25909-0.69116-.679-0.81317-2.28131-2.408-1.41785,0.81476-2.20941-1.2959-1.277-1.74341-1.94055,0.20319-.70032.39624-1.366,0.58942-2.03168L76.60126,49.712c-0.97.643-1.6875,2.16394-3.1322,1.0957,0.364-.64087.73938-1.30176,1.00537-1.77014a12.94944,12.94944,0,0,0-3.033-.7381,5.88722,5.88722,0,0,0-2.11157.925,2.83681,2.83681,0,0,1-.21,1.1795,47.152,47.152,0,0,0-5.56158,9.627,2.49952,2.49952,0,0,0-.08826.71478c0.6557-1.14752,1.29395-2.30548,1.97156-3.43994,0.89166-1.49286,1.76251-3.00244,2.73883-4.43933,0.92072-1.355,1.33972-1.41,2.98206-.7594q-1.76221,3.56726-3.52283,7.13141a6.60351,6.60351,0,0,0,.84747-0.94678c0.96008-1.59229,1.85638-3.22333,2.82806-4.80823,0.61285-.99963,1.3313-1.913,2.91327-1.09747-0.54492,1.32086-1.10858,2.68719-1.6723,4.05353l0.21606,0.12012c0.5376-.90759,1.03931-1.83954,1.62915-2.71185a1.96538,1.96538,0,0,1,1.07642-.94489,0.94909,0.94909,0,0,1,1.20715,1.0863,0.87907,0.87907,0,0,0,.57172.52649,2.89243,2.89243,0,0,1,2.09241,2.71014,2.00469,2.00469,0,0,1-.26746.86987c-0.1817.48645-.37708,0.96777-0.56677,1.45123l1.19385-.88074,1.6084,1.13751c-1.12762.2442-2.05835,0.44574-2.98914,0.64734,0.004,1.6911-1.44836,2.55591-2.1228,3.85352q0.62549-1.49872,1.25092-2.9975a20.17164,20.17164,0,0,0-1.31024,1.70538c-0.63647,1.028-1.19617,2.10352-1.79443,3.15546a0.49351,0.49351,0,0,1-.24249.25458C72.88336,66.59637,73.06775,67.38525,73.52747,68.4292Zm-0.715-17.74677H70.06763A1.83067,1.83067,0,0,1,72.688,49.749c-0.25635-.01239-0.5127-0.02478-0.93231-0.0451C72.08716,50.0108,72.31012,50.21722,72.81244,50.68243ZM77.14,64.53528q-0.59326,1.06686-1.18665,2.13373l-0.39685-.24377q0.65671-1.02722,1.31335-2.05444Zm-2.985,4.6496a0.77645,0.77645,0,0,0,.2381-0.27539c0.04614-1.70459,1.31018-1.65839,2.496-1.79187,0.871-.09808,1.73035-0.29944,2.90887-0.51123A8.35921,8.35921,0,0,1,74.15491,69.18488Zm3.40918-2.86505a2.72417,2.72417,0,0,1,3.2804-.81726C79.79034,65.7652,78.73621,66.02777,77.56409,66.31982Zm3.82013-1.83606c-0.502-.10132-0.99622-0.201-1.9082-0.38513,0.56561-.60352.94568-0.963,1.26807-1.36841a8.342,8.342,0,0,0,.59308-0.98712c-0.3468-.12177-0.68744-0.26807-1.04236-0.35779a7.21473,7.21473,0,0,0-.9021-0.11694q-0.02142-.15939-0.043-0.3186c0.94843-.2207,1.89679-0.44147,2.97559-0.6925A6.08334,6.08334,0,0,1,81.38422,64.48376Zm0.02429-7.05231a9.53835,9.53835,0,0,1,.98285,1.54834l-0.36755.28339L80.068,57.7619A3.65039,3.65039,0,0,1,81.40851,57.43146Zm14.45416-9.90833A3.28109,3.28109,0,0,1,93.31689,49.637a26.01923,26.01923,0,0,1-10.4837-.09125,19.877,19.877,0,0,0-2.58185-.00916,1.31516,1.31516,0,0,1-.80713-0.29419c-0.933-.89148-1.79779-1.85522-2.74384-2.73181a23.23079,23.23079,0,0,0-2.07159-1.50146c1.80658-.81946,3.39264-1.67108,5.07239-2.25226,0.20789-.0719.41913-0.16,0.63348-0.24823a10.80249,10.80249,0,0,1,10.862-.8548,7.996,7.996,0,0,1,1.98779.65137,3.91637,3.91637,0,0,1,1.226.94037C95.18854,44.03522,96.15942,46.61737,95.86267,47.52313Z"/><path d="M55.33654,63.237c-0.60949.959-.61133,2.33077-1.8052,2.89269l-0.3681-.18231q0.86977-1.95994,1.73943-3.91988l0.35242-.08727,0.43167,0.92958Z"/><path d="M43.12686,44.68962a4.14858,4.14858,0,0,1-1.19248-1.18416,3.87352,3.87352,0,0,1-.50379-1.168,2.11775,2.11775,0,0,1-.06895-0.50334c-0.01905-.02171-0.03845-0.04314-0.05739-0.06494a3.3715,3.3715,0,0,0-.79267,1.26842,2.3306,2.3306,0,0,1-1.29715,2.15186c-1.21456.61924-2.45345,1.19056-3.67963,1.78718-0.61467.299-1.47148,0.4496-.97845,1.55134,2.73678-.11619,4.54651-1.9058,6.60926-3.43929,1.67878,1.02393,2.05857.99588,2.67933-.10188l-0.03485-.047A1.66537,1.66537,0,0,1,43.12686,44.68962Z"/><path d="M69.35274,49.23579a1.66378,1.66378,0,0,0-1.96406.82662c-1.487,2.53487-3.16657,4.957-4.78363,7.41468a1.509,1.509,0,0,1-.47389.31279c1.56626-2.98651,2.82256-6.15644,5.49956-8.87178-1.05236-.06679-1.771-0.05327-2.467-0.17227-0.78391-.134-1.63168-0.68626-2.29423-0.49911-0.58158.16427-.94544,1.0992-1.576,1.612,0.353-.88149.7594-1.746,1.04634-2.64842,0.43811-1.37775-1.0786-1.24179-1.6733-1.82424l0.12534-.31072,7.97924,0.50852q0.00751,0.29016.01515,0.58033a11.63227,11.63227,0,0,1-1.83734.13314c-0.91748-.07218-1.82184-0.33064-2.73872-0.37939a2.74275,2.74275,0,0,0-1.07932.5006,4.02683,4.02683,0,0,0,.9588.75585c1.67425,0.6273,3.37319,1.18884,5.05871,1.78673A0.71383,0.71383,0,0,1,69.35274,49.23579Z"/><path d="M54.36659,56.60814l2.67265-6.1325L57.53787,50.7q-1.403,3.03712-2.80586,6.07422Z"/><path d="M57.65248,52.57108q1.83838-3.28117,3.67671-6.56236l0.42928,0.23254-3.75334,6.51938Z"/><path d="M68.56985,46.65552l2.20306,0.97285-0.1647.379C69.7491,48.2257,69.06693,48.0158,68.56985,46.65552Z"/><path d="M69.66735,62.00811q-0.54347,1.382-1.087,2.76406l0.13751,0.09608c1.04837-1.541,2.08159-3.09258,3.15309-4.61731,0.388-.55208.86739-1.03983,1.305-1.55694q0.06843,0.06009.13649,0.12066-1.30842,2.58148-2.6151,5.16384c-0.12183.24164-.21956,0.49541-0.32845,0.74357l0.27388,0.17254q1.06888-1.71446,2.13782-3.42893l0.31264,0.16627c-0.42755.88209-.8111,1.78917-1.29434,2.6396a21.27146,21.27146,0,0,1-1.78177,2.73629,4.34252,4.34252,0,0,1-1.3498.78066V66.41489c-0.47645.31925-1.00871,0.67591-1.541,1.03258l-0.45343-.3647q1.41182-2.614,2.82369-5.22808Q69.58217,61.93117,69.66735,62.00811Z"/><path d="M76.2417,58.03457C74.50376,61.68884,72.891,65.08,71.27821,68.47118,70.97255,66.94793,74.59374,59.53179,76.2417,58.03457Z"/><path d="M73.176,58.694q1.03829-2.11272,2.07646-4.22543l0.5046,0.27071a11.507,11.507,0,0,1-2.44462,4.07539Q73.24442,58.75411,73.176,58.694Z"/><path d="M76.34653,55.94327l1.083-.92787,0.37937,0.22517c-0.272.71406-.544,1.42813-0.91569,2.40428C76.65679,56.90907,76.52774,56.50731,76.34653,55.94327Z"/><path d="M69.49657,61.85469l1.737-3.54882,0.40126,0.20185q-0.98373,1.75019-1.96752,3.50038Q69.5822,61.93118,69.49657,61.85469Z"/><path d="M32.30835,28.01747a2.69632,2.69632,0,0,0-3.10345,2.74435c-0.14258,1.402,1.48081,2.60884,2.62369,2.61106a3.2109,3.2109,0,0,0,2.93368-2.868A2.2753,2.2753,0,0,0,32.30835,28.01747Zm-1.19053,3.95525a0.69564,0.69564,0,0,1,0-1.39044A0.69564,0.69564,0,0,1,31.11783,31.97271ZM32.33906,30.825a0.4026,0.4026,0,0,1,0-.80472A0.4026,0.4026,0,0,1,32.33906,30.825Z"/><path d="M46.73761,29.79209a6.56133,6.56133,0,0,0-2.17712-1.41262c-2.43085.25746-3.46991,1.70894-2.80109,3.95674,0.59094,1.98621,2.09709,2.40351,3.63873,1.00275a10.06714,10.06714,0,0,0,.7681-0.77778A2.29972,2.29972,0,0,0,46.73761,29.79209Zm-3.28529,2.91336a0.69564,0.69564,0,0,1,0-1.39044A0.69564,0.69564,0,0,1,43.45232,32.70546Zm1.09911-1.392a0.4026,0.4026,0,0,1,0-.80472A0.4026,0.4026,0,0,1,44.55143,31.31348Z"/><path d="M50.36316,55.40292c0.78957-1.47333,1.61092-2.93092,2.3516-4.42841,0.26172-.52915.22785-1.20821,0.50358-1.7258a9.13648,9.13648,0,0,1,1.741-2.27361c0.4387,2.10637-1.97676,3.297-1.48182,5.35439-1.25761.81614-1.24408,2.74565-2.72089,3.36979Z"/><path d="M48.25784,54.61874c0.68265-1.34885,1.37878-2.6911,2.03979-4.05046a11.757,11.757,0,0,0,.46911-1.33861c0.31157-1.46065,1.35678-2.418,2.1764-3.53014l0.40966,0.17384a6.55794,6.55794,0,0,1-.46118,1.58311c-1.31671,2.227-2.6897,4.421-4.05888,6.61658A3.12576,3.12576,0,0,1,48.25784,54.61874Z"/></g></svg>